<mxfile host="Electron" modified="2024-06-25T06:28:21.356Z" agent="Mozilla/5.0 (Windows NT 10.0; Win64; x64) AppleWebKit/537.36 (KHTML, like Gecko) draw.io/24.6.1 Chrome/124.0.6367.207 Electron/30.0.6 Safari/537.36" etag="UxecmTz6nReHijW_vnnH" version="24.6.1" type="device">
  <diagram name="第 1 页" id="cjNQoWjn6d0xCkeaDjp_">
    <mxGraphModel dx="1828" dy="1913" grid="1" gridSize="10" guides="1" tooltips="1" connect="1" arrows="1" fold="1" page="1" pageScale="1" pageWidth="827" pageHeight="1169" math="0" shadow="0">
      <root>
        <mxCell id="0" />
        <mxCell id="1" parent="0" />
        <mxCell id="HK7hDQ1z4h6LyXi3jpB5-1" value="" style="rounded=0;whiteSpace=wrap;html=1;" vertex="1" parent="1">
          <mxGeometry x="143" y="40" width="120" height="130" as="geometry" />
        </mxCell>
        <mxCell id="HK7hDQ1z4h6LyXi3jpB5-2" value="S" style="text;html=1;align=center;verticalAlign=middle;whiteSpace=wrap;rounded=0;" vertex="1" parent="1">
          <mxGeometry x="73" y="90" width="60" height="30" as="geometry" />
        </mxCell>
        <mxCell id="HK7hDQ1z4h6LyXi3jpB5-3" value="d" style="text;html=1;align=center;verticalAlign=middle;whiteSpace=wrap;rounded=0;" vertex="1" parent="1">
          <mxGeometry x="173" y="10" width="60" height="30" as="geometry" />
        </mxCell>
        <mxCell id="HK7hDQ1z4h6LyXi3jpB5-4" value="" style="rounded=0;whiteSpace=wrap;html=1;" vertex="1" parent="1">
          <mxGeometry x="353" y="50" width="160" height="100" as="geometry" />
        </mxCell>
        <mxCell id="HK7hDQ1z4h6LyXi3jpB5-5" value="d" style="text;html=1;align=center;verticalAlign=middle;whiteSpace=wrap;rounded=0;" vertex="1" parent="1">
          <mxGeometry x="303" y="85" width="60" height="30" as="geometry" />
        </mxCell>
        <mxCell id="HK7hDQ1z4h6LyXi3jpB5-6" value="S" style="text;html=1;align=center;verticalAlign=middle;whiteSpace=wrap;rounded=0;" vertex="1" parent="1">
          <mxGeometry x="403" y="20" width="60" height="30" as="geometry" />
        </mxCell>
        <mxCell id="HK7hDQ1z4h6LyXi3jpB5-7" value="X" style="text;html=1;align=center;verticalAlign=middle;whiteSpace=wrap;rounded=0;" vertex="1" parent="1">
          <mxGeometry x="273" y="85" width="60" height="30" as="geometry" />
        </mxCell>
        <mxCell id="HK7hDQ1z4h6LyXi3jpB5-11" value="" style="rounded=0;whiteSpace=wrap;html=1;fillColor=#a20025;fontColor=#ffffff;strokeColor=#faf4f4;" vertex="1" parent="1">
          <mxGeometry x="143" y="40" width="120" height="30" as="geometry" />
        </mxCell>
        <mxCell id="HK7hDQ1z4h6LyXi3jpB5-12" value="" style="rounded=0;whiteSpace=wrap;html=1;fillColor=#a20025;fontColor=#ffffff;strokeColor=#f4f0f0;" vertex="1" parent="1">
          <mxGeometry x="353" y="50" width="30" height="100" as="geometry" />
        </mxCell>
        <mxCell id="HK7hDQ1z4h6LyXi3jpB5-13" value="Q" style="text;html=1;align=center;verticalAlign=middle;whiteSpace=wrap;rounded=0;fontStyle=1;fontSize=16;" vertex="1" parent="1">
          <mxGeometry x="173" y="-40" width="60" height="30" as="geometry" />
        </mxCell>
        <mxCell id="HK7hDQ1z4h6LyXi3jpB5-14" value="K" style="text;html=1;align=center;verticalAlign=middle;whiteSpace=wrap;rounded=0;fontStyle=1;fontSize=16;" vertex="1" parent="1">
          <mxGeometry x="403" y="-40" width="60" height="30" as="geometry" />
        </mxCell>
        <mxCell id="HK7hDQ1z4h6LyXi3jpB5-15" value="GPU1" style="shape=cylinder3;whiteSpace=wrap;html=1;boundedLbl=1;backgroundOutline=1;size=15;" vertex="1" parent="1">
          <mxGeometry x="73" y="670" width="60" height="80" as="geometry" />
        </mxCell>
        <mxCell id="HK7hDQ1z4h6LyXi3jpB5-16" value="GPU4" style="shape=cylinder3;whiteSpace=wrap;html=1;boundedLbl=1;backgroundOutline=1;size=15;" vertex="1" parent="1">
          <mxGeometry x="728" y="670" width="60" height="80" as="geometry" />
        </mxCell>
        <mxCell id="HK7hDQ1z4h6LyXi3jpB5-17" value="GPU2" style="shape=cylinder3;whiteSpace=wrap;html=1;boundedLbl=1;backgroundOutline=1;size=15;" vertex="1" parent="1">
          <mxGeometry x="290" y="670" width="60" height="80" as="geometry" />
        </mxCell>
        <mxCell id="HK7hDQ1z4h6LyXi3jpB5-18" value="GPU3" style="shape=cylinder3;whiteSpace=wrap;html=1;boundedLbl=1;backgroundOutline=1;size=15;" vertex="1" parent="1">
          <mxGeometry x="508" y="670" width="60" height="80" as="geometry" />
        </mxCell>
        <mxCell id="HK7hDQ1z4h6LyXi3jpB5-20" value="local query 1" style="rounded=0;whiteSpace=wrap;html=1;" vertex="1" parent="1">
          <mxGeometry x="43" y="630" width="120" height="30" as="geometry" />
        </mxCell>
        <mxCell id="HK7hDQ1z4h6LyXi3jpB5-21" value="S&#39;" style="text;html=1;align=center;verticalAlign=middle;whiteSpace=wrap;rounded=0;" vertex="1" parent="1">
          <mxGeometry x="-17" y="630" width="60" height="30" as="geometry" />
        </mxCell>
        <mxCell id="HK7hDQ1z4h6LyXi3jpB5-22" value="local query 2" style="rounded=0;whiteSpace=wrap;html=1;" vertex="1" parent="1">
          <mxGeometry x="260" y="630" width="120" height="30" as="geometry" />
        </mxCell>
        <mxCell id="HK7hDQ1z4h6LyXi3jpB5-23" value="local query 2" style="rounded=0;whiteSpace=wrap;html=1;" vertex="1" parent="1">
          <mxGeometry x="478" y="630" width="120" height="30" as="geometry" />
        </mxCell>
        <mxCell id="HK7hDQ1z4h6LyXi3jpB5-24" value="local query 2" style="rounded=0;whiteSpace=wrap;html=1;" vertex="1" parent="1">
          <mxGeometry x="698" y="630" width="120" height="30" as="geometry" />
        </mxCell>
        <mxCell id="HK7hDQ1z4h6LyXi3jpB5-26" value="local value 1" style="rounded=0;whiteSpace=wrap;html=1;" vertex="1" parent="1">
          <mxGeometry x="103" y="485" width="70" height="100" as="geometry" />
        </mxCell>
        <mxCell id="HK7hDQ1z4h6LyXi3jpB5-27" value="d" style="text;html=1;align=center;verticalAlign=middle;whiteSpace=wrap;rounded=0;" vertex="1" parent="1">
          <mxGeometry x="73" y="600" width="60" height="30" as="geometry" />
        </mxCell>
        <mxCell id="HK7hDQ1z4h6LyXi3jpB5-29" value="local key 1" style="rounded=0;whiteSpace=wrap;html=1;" vertex="1" parent="1">
          <mxGeometry x="18" y="485" width="70" height="100" as="geometry" />
        </mxCell>
        <mxCell id="HK7hDQ1z4h6LyXi3jpB5-30" value="local value 2" style="rounded=0;whiteSpace=wrap;html=1;" vertex="1" parent="1">
          <mxGeometry x="327.5" y="485" width="70" height="100" as="geometry" />
        </mxCell>
        <mxCell id="HK7hDQ1z4h6LyXi3jpB5-31" value="local key 2" style="rounded=0;whiteSpace=wrap;html=1;" vertex="1" parent="1">
          <mxGeometry x="242.5" y="485" width="70" height="100" as="geometry" />
        </mxCell>
        <mxCell id="HK7hDQ1z4h6LyXi3jpB5-32" value="local value 3" style="rounded=0;whiteSpace=wrap;html=1;" vertex="1" parent="1">
          <mxGeometry x="545.5" y="485" width="70" height="100" as="geometry" />
        </mxCell>
        <mxCell id="HK7hDQ1z4h6LyXi3jpB5-33" value="local key 3" style="rounded=0;whiteSpace=wrap;html=1;" vertex="1" parent="1">
          <mxGeometry x="460.5" y="485" width="70" height="100" as="geometry" />
        </mxCell>
        <mxCell id="HK7hDQ1z4h6LyXi3jpB5-34" value="local value 4" style="rounded=0;whiteSpace=wrap;html=1;" vertex="1" parent="1">
          <mxGeometry x="765.5" y="485" width="70" height="100" as="geometry" />
        </mxCell>
        <mxCell id="HK7hDQ1z4h6LyXi3jpB5-35" value="local key 4" style="rounded=0;whiteSpace=wrap;html=1;" vertex="1" parent="1">
          <mxGeometry x="680.5" y="485" width="70" height="100" as="geometry" />
        </mxCell>
        <mxCell id="HK7hDQ1z4h6LyXi3jpB5-39" value="d" style="text;html=1;align=center;verticalAlign=middle;whiteSpace=wrap;rounded=0;" vertex="1" parent="1">
          <mxGeometry x="-42" y="520" width="60" height="30" as="geometry" />
        </mxCell>
        <mxCell id="HK7hDQ1z4h6LyXi3jpB5-40" value="S&#39;" style="text;html=1;align=center;verticalAlign=middle;whiteSpace=wrap;rounded=0;" vertex="1" parent="1">
          <mxGeometry x="23" y="455" width="60" height="30" as="geometry" />
        </mxCell>
        <mxCell id="HK7hDQ1z4h6LyXi3jpB5-41" value="S&#39;" style="text;html=1;align=center;verticalAlign=middle;whiteSpace=wrap;rounded=0;" vertex="1" parent="1">
          <mxGeometry x="108" y="455" width="60" height="30" as="geometry" />
        </mxCell>
        <mxCell id="HK7hDQ1z4h6LyXi3jpB5-50" value="" style="endArrow=classic;html=1;rounded=0;" edge="1" parent="1">
          <mxGeometry width="50" height="50" relative="1" as="geometry">
            <mxPoint x="230" y="540" as="sourcePoint" />
            <mxPoint x="190" y="540" as="targetPoint" />
          </mxGeometry>
        </mxCell>
        <mxCell id="HK7hDQ1z4h6LyXi3jpB5-51" value="" style="endArrow=classic;html=1;rounded=0;" edge="1" parent="1">
          <mxGeometry width="50" height="50" relative="1" as="geometry">
            <mxPoint x="670" y="534.5" as="sourcePoint" />
            <mxPoint x="630" y="534.5" as="targetPoint" />
          </mxGeometry>
        </mxCell>
        <mxCell id="HK7hDQ1z4h6LyXi3jpB5-52" value="" style="endArrow=classic;html=1;rounded=0;" edge="1" parent="1">
          <mxGeometry width="50" height="50" relative="1" as="geometry">
            <mxPoint x="449" y="534.5" as="sourcePoint" />
            <mxPoint x="409" y="534.5" as="targetPoint" />
          </mxGeometry>
        </mxCell>
        <mxCell id="HK7hDQ1z4h6LyXi3jpB5-58" value="" style="shape=flexArrow;endArrow=classic;html=1;rounded=0;" edge="1" parent="1">
          <mxGeometry width="50" height="50" relative="1" as="geometry">
            <mxPoint x="758" y="460" as="sourcePoint" />
            <mxPoint x="758" y="400" as="targetPoint" />
          </mxGeometry>
        </mxCell>
        <mxCell id="HK7hDQ1z4h6LyXi3jpB5-59" value="4" style="rounded=0;whiteSpace=wrap;html=1;" vertex="1" parent="1">
          <mxGeometry x="709.5" y="300" width="97" height="90" as="geometry" />
        </mxCell>
        <mxCell id="HK7hDQ1z4h6LyXi3jpB5-60" value="" style="group" vertex="1" connectable="0" parent="1">
          <mxGeometry x="51.5" y="300" width="97" height="160" as="geometry" />
        </mxCell>
        <mxCell id="HK7hDQ1z4h6LyXi3jpB5-43" value="" style="shape=flexArrow;endArrow=classic;html=1;rounded=0;" edge="1" parent="HK7hDQ1z4h6LyXi3jpB5-60">
          <mxGeometry width="50" height="50" relative="1" as="geometry">
            <mxPoint x="48.5" y="160" as="sourcePoint" />
            <mxPoint x="48.5" y="100" as="targetPoint" />
          </mxGeometry>
        </mxCell>
        <mxCell id="HK7hDQ1z4h6LyXi3jpB5-61" value="" style="group" vertex="1" connectable="0" parent="1">
          <mxGeometry x="270" y="300" width="97" height="160" as="geometry" />
        </mxCell>
        <mxCell id="HK7hDQ1z4h6LyXi3jpB5-62" value="" style="shape=flexArrow;endArrow=classic;html=1;rounded=0;" edge="1" parent="HK7hDQ1z4h6LyXi3jpB5-61">
          <mxGeometry width="50" height="50" relative="1" as="geometry">
            <mxPoint x="48.5" y="160" as="sourcePoint" />
            <mxPoint x="48.5" y="100" as="targetPoint" />
          </mxGeometry>
        </mxCell>
        <mxCell id="HK7hDQ1z4h6LyXi3jpB5-63" value="2" style="rounded=0;whiteSpace=wrap;html=1;" vertex="1" parent="HK7hDQ1z4h6LyXi3jpB5-61">
          <mxGeometry width="97" height="90" as="geometry" />
        </mxCell>
        <mxCell id="HK7hDQ1z4h6LyXi3jpB5-64" value="" style="group" vertex="1" connectable="0" parent="1">
          <mxGeometry x="490" y="300" width="97" height="160" as="geometry" />
        </mxCell>
        <mxCell id="HK7hDQ1z4h6LyXi3jpB5-65" value="" style="shape=flexArrow;endArrow=classic;html=1;rounded=0;" edge="1" parent="HK7hDQ1z4h6LyXi3jpB5-64">
          <mxGeometry width="50" height="50" relative="1" as="geometry">
            <mxPoint x="48.5" y="160" as="sourcePoint" />
            <mxPoint x="48.5" y="100" as="targetPoint" />
          </mxGeometry>
        </mxCell>
        <mxCell id="HK7hDQ1z4h6LyXi3jpB5-66" value="3" style="rounded=0;whiteSpace=wrap;html=1;" vertex="1" parent="HK7hDQ1z4h6LyXi3jpB5-64">
          <mxGeometry width="97" height="90" as="geometry" />
        </mxCell>
        <mxCell id="HK7hDQ1z4h6LyXi3jpB5-67" value="" style="curved=1;endArrow=classic;html=1;rounded=0;" edge="1" parent="1">
          <mxGeometry width="50" height="50" relative="1" as="geometry">
            <mxPoint x="-50" y="540" as="sourcePoint" />
            <mxPoint x="870" y="530" as="targetPoint" />
            <Array as="points">
              <mxPoint x="-80" y="950" />
              <mxPoint x="860" y="970" />
            </Array>
          </mxGeometry>
        </mxCell>
        <mxCell id="HK7hDQ1z4h6LyXi3jpB5-68" value="" style="endArrow=classic;html=1;rounded=0;entryX=-0.086;entryY=1.05;entryDx=0;entryDy=0;entryPerimeter=0;" edge="1" parent="1" target="HK7hDQ1z4h6LyXi3jpB5-31">
          <mxGeometry width="50" height="50" relative="1" as="geometry">
            <mxPoint x="170" y="640" as="sourcePoint" />
            <mxPoint x="430" y="330" as="targetPoint" />
          </mxGeometry>
        </mxCell>
        <mxCell id="HK7hDQ1z4h6LyXi3jpB5-46" value="S&#39;" style="text;html=1;align=center;verticalAlign=middle;whiteSpace=wrap;rounded=0;" vertex="1" parent="1">
          <mxGeometry x="-90" y="330" width="60" height="30" as="geometry" />
        </mxCell>
        <mxCell id="HK7hDQ1z4h6LyXi3jpB5-47" value="S&#39;" style="text;html=1;align=center;verticalAlign=middle;whiteSpace=wrap;rounded=0;" vertex="1" parent="1">
          <mxGeometry x="-11.5" y="270" width="60" height="30" as="geometry" />
        </mxCell>
        <mxCell id="HK7hDQ1z4h6LyXi3jpB5-48" value="Query Length" style="text;html=1;align=center;verticalAlign=middle;whiteSpace=wrap;rounded=0;" vertex="1" parent="1">
          <mxGeometry x="-150" y="330" width="60" height="30" as="geometry" />
        </mxCell>
        <mxCell id="HK7hDQ1z4h6LyXi3jpB5-49" value="Key Length" style="text;html=1;align=center;verticalAlign=middle;whiteSpace=wrap;rounded=0;" vertex="1" parent="1">
          <mxGeometry x="-11.5" y="240" width="60" height="30" as="geometry" />
        </mxCell>
        <mxCell id="HK7hDQ1z4h6LyXi3jpB5-45" value="local_query1 * local_key1" style="rounded=0;whiteSpace=wrap;html=1;" vertex="1" parent="1">
          <mxGeometry x="-30" y="300" width="97" height="90" as="geometry" />
        </mxCell>
        <mxCell id="HK7hDQ1z4h6LyXi3jpB5-69" value="" style="endArrow=classic;html=1;rounded=0;exitX=0;exitY=0;exitDx=0;exitDy=0;" edge="1" parent="1" source="HK7hDQ1z4h6LyXi3jpB5-31">
          <mxGeometry width="50" height="50" relative="1" as="geometry">
            <mxPoint x="290" y="410" as="sourcePoint" />
            <mxPoint x="160" y="400" as="targetPoint" />
          </mxGeometry>
        </mxCell>
        <mxCell id="HK7hDQ1z4h6LyXi3jpB5-70" value="local_query1 * loca_key2" style="rounded=0;whiteSpace=wrap;html=1;" vertex="1" parent="1">
          <mxGeometry x="88" y="300" width="97" height="90" as="geometry" />
        </mxCell>
        <mxCell id="HK7hDQ1z4h6LyXi3jpB5-71" value="...." style="text;html=1;align=center;verticalAlign=middle;whiteSpace=wrap;rounded=0;" vertex="1" parent="1">
          <mxGeometry x="173" y="360" width="60" height="30" as="geometry" />
        </mxCell>
      </root>
    </mxGraphModel>
  </diagram>
</mxfile>
